<svg xmlns="http://www.w3.org/2000/svg" viewBox="0 0 256 257" role="img" aria-label="Vite">
  <defs>
    <linearGradient id="a" x1="0%" x2="50%" y1="0%" y2="100%">
      <stop offset="0%" stop-color="#41D1FF" />
      <stop offset="100%" stop-color="#BD34FE" />
    </linearGradient>
    <linearGradient id="b" x1="0%" x2="50%" y1="0%" y2="100%">
      <stop offset="0%" stop-color="#FFEA83" />
      <stop offset="8%" stop-color="#FFDD35" />
      <stop offset="100%" stop-color="#FFA800" />
    </linearGradient>
  </defs>
  <path fill="url(#a)" d="M255.2 38.3L136.1 251.6c-2.5 4.5-9 4.5-11.5 0L.9 38.3c-2.8-5 1.6-11 7.2-10.1l118 21.1c.8.1 1.6.1 2.4 0l119.5-21.2c5.6-1 10 5.1 7.2 10.2z"/>
  <path fill="url(#b)" d="M185.4 0L97.5 17.2c-1.5.3-2.6 1.6-2.8 3.1L89.3 109c-.2 2.8 2.4 5 5.1 4.3l24.5-5.7c2.3-.5 4.4 1.5 3.9 3.9l-7.3 35.5c-.5 2.5 1.8 4.6 4.2 3.8l15.1-4.7c2.4-.7 4.7 1.4 4.2 3.9l-11.6 56.4c-.7 3.3 3.7 5.2 5.7 2.4l1.3-1.8 71.7-143.1c1.2-2.4-.9-5.1-3.5-4.6l-25.2 4.8c-2.4.5-4.5-1.8-3.8-4.2l16.4-56.8c.7-2.4-1.4-4.8-3.8-4.3z"/>
</svg>
